# xmcd
# 
# Track frame offsets:
#     150
#     17460
#     33797
#     51857
#     69492
#     87310
#     106815
#     125030
#     147460
#     185962
#     205400
#     222947
#     234447
#     253997
#     269355
#     288662
# 
# Disc length: 4168
# 
# Revision: 1
# Processed by: cddbd v1.5.2PL0 Copyright (c) Steve Scherf et al.
# Submitted via: BonkEnc v1.0
# 
DISCID=fa104610
DTITLE=Londonbeat - Best! The Singles
DYEAR=1996
DGENRE=Rock
TTITLE0=I've Been Thinking About You
TTITLE1=You Bring On The Sun
TTITLE2=A Better Love
TTITLE3=Come Back
TTITLE4=This is Your Life
TTITLE5=Build It With Love
TTITLE6=No Woman No Cry
TTITLE7=You Make Me Do Things
TTITLE8=There's A Beat Going On
TTITLE9=Lover You Send Me Colours
TTITLE10=That's How I Feel About You
TTITLE11=Failing In Love Again
TTITLE12=Keeping The Memories Alive
TTITLE13=You Love And Learn
TTITLE14=gAM
TTITLE15=Katey
EXTD=
EXTT0=
EXTT1=
EXTT2=
EXTT3=
EXTT4=
EXTT5=
EXTT6=
EXTT7=
EXTT8=
EXTT9=
EXTT10=
EXTT11=
EXTT12=
EXTT13=
EXTT14=
EXTT15=
PLAYORDER=
